<?xml version="1.0" standalone="no"?>
<!DOCTYPE svg PUBLIC "-//W3C//DTD SVG 20010904//EN"
 "http://www.w3.org/TR/2001/REC-SVG-20010904/DTD/svg10.dtd">
<svg version="1.0" xmlns="http://www.w3.org/2000/svg"
 width="560.000000pt" height="560.000000pt" viewBox="0 0 560.000000 560.000000"
 preserveAspectRatio="xMidYMid meet">
<metadata>
Created by potrace 1.14, written by Peter Selinger 2001-2017
</metadata>
<g transform="translate(0.000000,560.000000) scale(0.100000,-0.100000)"
fill="#000000" stroke="none">
<path d="M2585 4849 c-577 -61 -1111 -365 -1462 -834 -475 -634 -556 -1490
-209 -2200 106 -216 218 -376 386 -549 161 -166 325 -290 522 -395 118 -63
311 -141 349 -141 43 0 84 24 98 57 16 39 11 439 -5 436 -7 -1 -61 -8 -120
-14 -194 -22 -356 22 -473 127 -41 37 -63 70 -111 169 -68 140 -121 212 -188
258 -121 84 -143 125 -76 147 113 38 281 -57 381 -213 59 -92 120 -149 201
-189 63 -31 72 -33 172 -32 85 1 117 5 169 25 l65 24 12 57 c15 63 53 144 91
195 l24 32 -33 5 c-227 37 -333 67 -458 132 -240 123 -381 330 -437 638 -25
139 -22 388 5 489 28 101 69 187 135 278 l52 74 -17 65 c-33 129 -17 364 34
475 12 27 13 27 81 21 120 -11 279 -75 431 -173 l69 -44 126 25 c294 59 586
54 878 -15 52 -12 53 -12 105 23 152 100 330 173 452 185 76 7 73 9 107 -117
29 -110 31 -283 5 -381 l-17 -67 50 -65 c103 -137 150 -275 158 -472 12 -284
-55 -541 -190 -722 -58 -78 -158 -161 -257 -212 -126 -66 -246 -101 -467 -137
l-32 -5 36 -50 c20 -28 48 -81 62 -117 26 -67 26 -68 31 -457 3 -214 9 -398
14 -408 11 -24 58 -47 95 -47 38 0 231 78 349 141 112 59 241 145 343 227 88
71 266 253 330 337 508 666 591 1544 216 2280 -360 705 -1098 1153 -1886 1144
-64 -1 -152 -5 -196 -10z"/>
</g>
</svg>
